<?xml version="1.0" standalone="no"?> <!DOCTYPE svg PUBLIC "-//W3C//DTD SVG 1.1//EN" "http://www.w3.org/Graphics/SVG/1.1/DTD/svg11.dtd">  <svg id="svg" width="744.0945" height="1052.362"> 	<text x="70.86614" y="103.29921" font-size="12" fill="#252525" >D. abbreviatus</text><text x="70.86614" y="298.181095" font-size="12" fill="#252525" >T. castaneum</text><text x="177.563183918529" y="85.039368" font-size="9" fill="black" >a</text> <text x="271.61531891821" y="85.039368" font-size="9" fill="black" >b</text> <text x="340.643109125179" y="85.039368" font-size="9" fill="black" >c</text> <text x="398.078867859037" y="85.039368" font-size="9" fill="black" >d</text> <text x="444.726981535191" y="85.039368" font-size="9" fill="black" >e</text> <text x="482.563322867596" y="85.039368" font-size="9" fill="black" >f</text> <text x="509.452581730848" y="85.039368" font-size="9" fill="black" >g</text> <text x="528.036395918099" y="85.039368" font-size="9" fill="black" >h</text> <text x="542.119698921212" y="85.039368" font-size="9" fill="black" >i</text> <text x="554.34166550169" y="85.039368" font-size="9" fill="black" >j</text> <text x="566.444464085546" y="85.039368" font-size="9" fill="black" >k</text> <text x="578.481817666518" y="85.039368" font-size="9" fill="black" >l</text> <text x="589.874868589849" y="85.039368" font-size="9" fill="black" >m</text> <text x="599.473716218794" y="85.039368" font-size="9" fill="black" >n</text> <text x="607.828081199818" y="85.039368" font-size="9" fill="black" >o</text> <text x="615.855570494883" y="85.039368" font-size="9" fill="black" >p</text> <text x="623.543184474755" y="85.039368" font-size="9" fill="black" >q</text> <text x="631.090353340124" y="85.039368" font-size="9" fill="black" >r</text> <text x="638.326360094007" y="85.039368" font-size="9" fill="black" >s</text> <text x="645.289972216165" y="85.039368" font-size="9" fill="black" >t</text> <text x="652.183561713985" y="85.039368" font-size="9" fill="black" >u</text> <text x="658.997293306669" y="85.039368" font-size="9" fill="black" >v</text> <text x="665.49072439075" y="85.039368" font-size="9" fill="black" >w</text> <text x="670.750451471885" y="85.039368" font-size="9" fill="black" >x</text> <text x="392.3220375" y="310.0393625" font-size="9" fill="black" >LGX</text><path d="M 372.212747266191 106.29921 Q 372.212747266191 159.448815 361.975784721752 194.881885 T 351.738822177312 283.46456 L 351.845861048146 283.46456 Q 351.845861048146 230.314955 362.033919903301 194.881885 T 372.221978758456 106.29921 Z" stroke="#21908CFF" fill="#21908CFF" style="stroke-width: 0.5px;"/> <path d="M 322.325316210648 106.29921 Q 322.325316210648 159.448815 433.742543530947 194.881885 T 545.159770851246 283.46456 L 545.206992020757 283.46456 Q 545.206992020757 230.314955 433.786303452353 194.881885 T 322.36561488395 106.29921 Z" stroke="#21908CFF" fill="#21908CFF" style="stroke-width: 0.5px;"/> <path d="M 277.115459631169 106.29921 Q 277.115459631169 159.448815 300.722462436951 194.881885 T 324.329465242733 283.46456 L 324.37573692492 283.46456 Q 324.37573692492 230.314955 300.746081486197 194.881885 T 277.116426047474 106.29921 Z" stroke="#FDE725FF" fill="#FDE725FF" style="stroke-width: 0.5px;"/> <path d="M 368.085874791111 106.29921 Q 368.085874791111 159.448815 350.682540469156 194.881885 T 333.279206147201 283.46456 L 333.382573667054 283.46456 Q 333.382573667054 230.314955 350.73902261903 194.881885 T 368.095471571007 106.29921 Z" stroke="#21908CFF" fill="#21908CFF" style="stroke-width: 0.5px;"/> <path d="M 411.001611561025 106.29921 Q 411.001611561025 159.448815 537.918964754925 194.881885 T 664.836317948824 283.46456 L 664.950003230916 283.46456 Q 664.950003230916 230.314955 537.976623086797 194.881885 T 411.003242942678 106.29921 Z" stroke="#FDE725FF" fill="#FDE725FF" style="stroke-width: 0.5px;"/> <path d="M 525.690480162234 106.29921 Q 525.690480162234 159.448815 433.37793107482 194.881885 T 341.065381987406 283.46456 L 341.114438832407 283.46456 Q 341.114438832407 230.314955 433.408128548563 194.881885 T 525.70181826472 106.29921 Z" stroke="#21908CFF" fill="#21908CFF" style="stroke-width: 0.5px;"/> <path d="M 371.032825660554 106.29921 Q 371.032825660554 159.448815 499.078038424155 194.881885 T 627.123251187756 283.46456 L 627.156356645737 283.46456 Q 627.156356645737 230.314955 499.095335914335 194.881885 T 371.034315182932 106.29921 Z" stroke="#21908CFF" fill="#21908CFF" style="stroke-width: 0.5px;"/> <path d="M 360.753362193987 106.29921 Q 360.753362193987 159.448815 422.454476181726 194.881885 T 484.155590169466 283.46456 L 484.476516884503 283.46456 Q 484.476516884503 230.314955 422.618684624082 194.881885 T 360.760852363661 106.29921 Z" stroke="#21908CFF" fill="#21908CFF" style="stroke-width: 0.5px;"/> <path d="M 455.126450389268 106.29921 Q 455.126450389268 159.448815 546.062184866004 194.881885 T 636.997919342741 283.46456 L 638.073878376706 283.46456 Q 638.073878376706 230.314955 546.794351110257 194.881885 T 455.514823843808 106.29921 Z" stroke="#21908CFF" fill="#21908CFF" style="stroke-width: 0.5px;"/> <path d="M 661.657911405252 106.29921 Q 661.657911405252 159.448815 644.286390887638 194.881885 T 626.914870370024 283.46456 L 626.95601482067 283.46456 Q 626.95601482067 230.314955 644.311439659681 194.881885 T 661.666864498691 106.29921 Z" stroke="#21908CFF" fill="#21908CFF" style="stroke-width: 0.5px;"/> <path d="M 367.955672802822 106.29921 Q 367.955672802822 159.448815 403.802592055224 194.881885 T 439.649511307627 283.46456 L 439.680211397724 283.46456 Q 439.680211397724 230.314955 403.818430628148 194.881885 T 367.956649858573 106.29921 Z" stroke="#21908CFF" fill="#21908CFF" style="stroke-width: 0.5px;"/> <path d="M 357.450023589841 106.29921 Q 357.450023589841 159.448815 450.258657139777 194.881885 T 543.067290689712 283.46456 L 543.101725429945 283.46456 Q 543.101725429945 230.314955 450.276815214205 194.881885 T 357.451904998464 106.29921 Z" stroke="#21908CFF" fill="#21908CFF" style="stroke-width: 0.5px;"/> <path d="M 355.146399208908 106.29921 Q 355.146399208908 159.448815 358.366398751467 194.881885 T 361.586398294026 283.46456 L 361.623871393691 283.46456 Q 361.623871393691 230.314955 358.386058273202 194.881885 T 355.148245152713 106.29921 Z" stroke="#21908CFF" fill="#21908CFF" style="stroke-width: 0.5px;"/> <path d="M 322.825703521292 106.29921 Q 322.825703521292 159.448815 433.911809216807 194.881885 T 544.997914912321 283.46456 L 545.046148868309 283.46456 Q 545.046148868309 230.314955 433.939479769618 194.881885 T 322.832810670926 106.29921 Z" stroke="#21908CFF" fill="#21908CFF" style="stroke-width: 0.5px;"/> <path d="M 360.158540937788 106.29921 Q 360.158540937788 159.448815 451.71631498318 194.881885 T 543.274089028573 283.46456 L 543.873975118989 283.46456 Q 543.873975118989 230.314955 452.039913948972 194.881885 T 360.205852778955 106.29921 Z" stroke="#21908CFF" fill="#21908CFF" style="stroke-width: 0.5px;"/> <path d="M 661.93402274996 106.29921 Q 661.93402274996 159.448815 550.290342773731 194.881885 T 438.646662797502 283.46456 L 438.685275281954 283.46456 Q 438.685275281954 230.314955 550.325203885367 194.881885 T 661.965132488779 106.29921 Z" stroke="#21908CFF" fill="#21908CFF" style="stroke-width: 0.5px;"/> <path d="M 336.022357554827 106.29921 Q 336.022357554827 159.448815 355.487850837748 194.881885 T 374.953344120669 283.46456 L 375.418466310431 283.46456 Q 375.418466310431 230.314955 355.744935854646 194.881885 T 336.071405398862 106.29921 Z" stroke="#21908CFF" fill="#21908CFF" style="stroke-width: 0.5px;"/> <path d="M 358.100421763167 106.29921 Q 358.100421763167 159.448815 511.666337962756 194.881885 T 665.232254162346 283.46456 L 666.17623445847 283.46456 Q 666.17623445847 230.314955 512.149091683244 194.881885 T 358.121948908018 106.29921 Z" stroke="#21908CFF" fill="#21908CFF" style="stroke-width: 0.5px;"/> <path d="M 370.523749469369 106.29921 Q 370.523749469369 159.448815 366.113942095698 194.881885 T 361.704134722028 283.46456 L 361.733948623957 283.46456 Q 361.733948623957 230.314955 366.12926487166 194.881885 T 370.524581119363 106.29921 Z" stroke="#21908CFF" fill="#21908CFF" style="stroke-width: 0.5px;"/> <path d="M 647.147643770974 106.29921 Q 647.147643770974 159.448815 392.638822209827 194.881885 T 138.13000064868 283.46456 L 138.387185114793 283.46456 Q 138.387185114793 230.314955 392.770110655713 194.881885 T 647.153036196632 106.29921 Z" stroke="#FDE725FF" fill="#FDE725FF" style="stroke-width: 0.5px;"/> <path d="M 370.581021604822 106.29921 Q 370.581021604822 159.448815 404.060132844202 194.881885 T 437.539244083583 283.46456 L 437.556651351163 283.46456 Q 437.556651351163 230.314955 404.069059019729 194.881885 T 370.581466688294 106.29921 Z" stroke="#21908CFF" fill="#21908CFF" style="stroke-width: 0.5px;"/> <path d="M 361.160852958959 106.29921 Q 361.160852958959 159.448815 435.480383214728 194.881885 T 509.799913470497 283.46456 L 509.975695223487 283.46456 Q 509.975695223487 230.314955 435.57177003571 194.881885 T 361.167844847933 106.29921 Z" stroke="#21908CFF" fill="#21908CFF" style="stroke-width: 0.5px;"/> <path d="M 356.983547738681 106.29921 Q 356.983547738681 159.448815 375.05450156409 194.881885 T 393.125455389499 283.46456 L 393.442141061162 283.46456 Q 393.442141061162 230.314955 375.218809582399 194.881885 T 356.995478103636 106.29921 Z" stroke="#21908CFF" fill="#21908CFF" style="stroke-width: 0.5px;"/> <path d="M 654.082696074765 106.29921 Q 654.082696074765 159.448815 541.086827555181 194.881885 T 428.090959035598 283.46456 L 428.353334032408 283.46456 Q 428.353334032408 230.314955 541.27052515053 194.881885 T 654.187716268653 106.29921 Z" stroke="#21908CFF" fill="#21908CFF" style="stroke-width: 0.5px;"/> <path d="M 491.295338802111 106.29921 Q 491.295338802111 159.448815 313.422632949763 194.881885 T 135.549927097416 283.46456 L 135.738685177148 283.46456 Q 135.738685177148 230.314955 313.531265300199 194.881885 T 491.323845423249 106.29921 Z" stroke="#FDE725FF" fill="#FDE725FF" style="stroke-width: 0.5px;"/> <path d="M 601.849740674696 106.29921 Q 601.849740674696 159.448815 592.8726197163 194.881885 T 583.895498757904 283.46456 L 584.469875288919 283.46456 Q 584.469875288919 230.314955 593.310677979718 194.881885 T 602.151480670518 106.29921 Z" stroke="#FDE725FF" fill="#FDE725FF" style="stroke-width: 0.5px;"/> <path d="M 343.87556639093 106.29921 Q 343.87556639093 159.448815 440.488835663432 194.881885 T 537.102104935934 283.46456 L 537.292445494536 283.46456 Q 537.292445494536 230.314955 440.589148341421 194.881885 T 343.885851188305 106.29921 Z" stroke="#21908CFF" fill="#21908CFF" style="stroke-width: 0.5px;"/> <path d="M 662.286353309423 106.29921 Q 662.286353309423 159.448815 540.280503005399 194.881885 T 418.274652701375 283.46456 L 418.653688040555 283.46456 Q 418.653688040555 230.314955 540.566906126125 194.881885 T 662.480124211696 106.29921 Z" stroke="#21908CFF" fill="#21908CFF" style="stroke-width: 0.5px;"/> <path d="M 336.231846464675 106.29921 Q 336.231846464675 159.448815 430.106461395259 194.881885 T 523.981076325843 283.46456 L 524.30200304088 283.46456 Q 524.30200304088 230.314955 430.303969528978 194.881885 T 336.305936017077 106.29921 Z" stroke="#21908CFF" fill="#21908CFF" style="stroke-width: 0.5px;"/> <path d="M 312.21753615737 106.29921 Q 312.21753615737 159.448815 352.490143694819 194.881885 T 392.762751232268 283.46456 L 392.94574908891 283.46456 Q 392.94574908891 230.314955 352.591126802237 194.881885 T 312.236504515564 106.29921 Z" stroke="#21908CFF" fill="#21908CFF" style="stroke-width: 0.5px;"/> <path d="M 364.821575859209 106.29921 Q 364.821575859209 159.448815 339.949744913599 194.881885 T 315.077913967989 283.46456 L 316.294143929078 283.46456 Q 316.294143929078 230.314955 340.740549813865 194.881885 T 365.186955698652 106.29921 Z" stroke="#21908CFF" fill="#21908CFF" style="stroke-width: 0.5px;"/> <path d="M 366.562105810604 106.29921 Q 366.562105810604 159.448815 298.283705777335 194.881885 T 230.005305744066 283.46456 L 232.245272936376 283.46456 Q 232.245272936376 230.314955 299.501255749143 194.881885 T 366.757238561909 106.29921 Z" stroke="#21908CFF" fill="#21908CFF" style="stroke-width: 0.5px;"/> <path d="M 347.790600411934 106.29921 Q 347.790600411934 159.448815 348.880390451936 194.881885 T 349.970180491938 283.46456 L 350.291360403594 283.46456 Q 350.291360403594 230.314955 349.064044952499 194.881885 T 347.836729501403 106.29921 Z" stroke="#21908CFF" fill="#21908CFF" style="stroke-width: 0.5px;"/> <path d="M 370.762661765914 106.29921 Q 370.762661765914 159.448815 389.017644182305 194.881885 T 407.272626598696 283.46456 L 407.954674992093 283.46456 Q 407.954674992093 230.314955 389.370796460322 194.881885 T 370.786917928552 106.29921 Z" stroke="#21908CFF" fill="#21908CFF" style="stroke-width: 0.5px;"/> <path d="M 351.257222587098 106.29921 Q 351.257222587098 159.448815 459.529613861398 194.881885 T 567.802005135698 283.46456 L 568.770545503899 283.46456 Q 568.770545503899 230.314955 460.022989637658 194.881885 T 351.275433771416 106.29921 Z" stroke="#21908CFF" fill="#21908CFF" style="stroke-width: 0.5px;"/> <path d="M 661.451506161376 106.29921 Q 661.451506161376 159.448815 644.042917338575 194.881885 T 626.634328515775 283.46456 L 626.776118622616 283.46456 Q 626.776118622616 230.314955 644.118663979172 194.881885 T 661.461209335727 106.29921 Z" stroke="#21908CFF" fill="#21908CFF" style="stroke-width: 0.5px;"/> <path d="M 618.810824099515 106.29921 Q 618.810824099515 159.448815 604.00871922212 194.881885 T 589.206614344724 283.46456 L 589.541530172981 283.46456 Q 589.541530172981 230.314955 604.187422143585 194.881885 T 618.83331411419 106.29921 Z" stroke="#FDE725FF" fill="#FDE725FF" style="stroke-width: 0.5px;"/> <path d="M 653.546616970747 106.29921 Q 653.546616970747 159.448815 589.071860335744 194.881885 T 524.597103700742 283.46456 L 524.911700500295 283.46456 Q 524.911700500295 230.314955 589.311233191816 194.881885 T 653.710765883338 106.29921 Z" stroke="#21908CFF" fill="#21908CFF" style="stroke-width: 0.5px;"/> <path d="M 367.16128391976 106.29921 Q 367.16128391976 159.448815 498.04554649332 194.881885 T 628.92980906688 283.46456 L 629.239088737426 283.46456 Q 629.239088737426 230.314955 498.204421714547 194.881885 T 367.169754691668 106.29921 Z" stroke="#21908CFF" fill="#21908CFF" style="stroke-width: 0.5px;"/> <path d="M 546.13834826384 106.29921 Q 546.13834826384 159.448815 479.565912939317 194.881885 T 412.993477614793 283.46456 L 413.171728034822 283.46456 Q 413.171728034822 230.314955 479.729896401675 194.881885 T 546.288064768528 106.29921 Z" stroke="#21908CFF" fill="#21908CFF" style="stroke-width: 0.5px;"/> <path d="M 576.503804185314 106.29921 Q 576.503804185314 159.448815 578.838593044246 194.881885 T 581.173381903179 283.46456 L 581.847517902222 283.46456 Q 581.847517902222 230.314955 579.180035629134 194.881885 T 576.512553356046 106.29921 Z" stroke="#FDE725FF" fill="#FDE725FF" style="stroke-width: 0.5px;"/> <path d="M 554.591050093699 106.29921 Q 554.591050093699 159.448815 471.98504085243 194.881885 T 389.37903161116 283.46456 L 389.602414328589 283.46456 Q 389.602414328589 230.314955 472.146467186038 194.881885 T 554.690520043487 106.29921 Z" stroke="#FDE725FF" fill="#FDE725FF" style="stroke-width: 0.5px;"/> <path d="M 368.104234927667 106.29921 Q 368.104234927667 159.448815 393.035658517838 194.881885 T 417.967082108009 283.46456 L 418.195781954445 283.46456 Q 418.195781954445 230.314955 393.187988601846 194.881885 T 368.180195249247 106.29921 Z" stroke="#21908CFF" fill="#21908CFF" style="stroke-width: 0.5px;"/> <path d="M 624.240527849547 106.29921 Q 624.240527849547 159.448815 497.404126663153 194.881885 T 370.567725476759 283.46456 L 370.617985005702 283.46456 Q 370.617985005702 230.314955 497.505913632889 194.881885 T 624.393842260076 106.29921 Z" stroke="#FDE725FF" fill="#FDE725FF" style="stroke-width: 0.5px;"/> <path d="M 362.040674816631 106.29921 Q 362.040674816631 159.448815 353.516568185145 194.881885 T 344.992461553658 283.46456 L 345.128618035718 283.46456 Q 345.128618035718 230.314955 353.586899328772 194.881885 T 362.045180621826 106.29921 Z" stroke="#21908CFF" fill="#21908CFF" style="stroke-width: 0.5px;"/> <path d="M 370.508146722454 106.29921 Q 370.508146722454 159.448815 366.143170727822 194.881885 T 361.77819473319 283.46456 L 362.106464150189 283.46456 Q 362.106464150189 230.314955 366.312781204303 194.881885 T 370.519098258418 106.29921 Z" stroke="#21908CFF" fill="#21908CFF" style="stroke-width: 0.5px;"/> <path d="M 369.551311238091 106.29921 Q 369.551311238091 159.448815 345.726057253968 194.881885 T 321.900803269845 283.46456 L 322.414349313059 283.46456 Q 322.414349313059 230.314955 346.050939572952 194.881885 T 369.687529832845 106.29921 Z" stroke="#21908CFF" fill="#21908CFF" style="stroke-width: 0.5px;"/> <path d="M 458.481081760461 106.29921 Q 458.481081760461 159.448815 437.216865782427 194.881885 T 415.952649804392 283.46456 L 416.361182549727 283.46456 Q 416.361182549727 230.314955 437.454188912451 194.881885 T 458.547195275175 106.29921 Z" stroke="#21908CFF" fill="#21908CFF" style="stroke-width: 0.5px;"/> <path d="M 347.012457962243 106.29921 Q 347.012457962243 159.448815 358.130609474804 194.881885 T 369.248760987365 283.46456 L 369.365927722973 283.46456 Q 369.365927722973 230.314955 358.191337577509 194.881885 T 347.016747432045 106.29921 Z" stroke="#21908CFF" fill="#21908CFF" style="stroke-width: 0.5px;"/> <path d="M 672.992584711749 106.29921 Q 672.992584711749 159.448815 657.51386209916 194.881885 T 642.035139486571 283.46456 L 644.133063375421 283.46456 Q 644.133063375421 230.314955 658.615006977578 194.881885 T 673.096950579736 106.29921 Z" stroke="#FDE725FF" fill="#FDE725FF" style="stroke-width: 0.5px;"/> <path d="M 145.781013055339 106.29921 Q 145.781013055339 159.448815 258.548340672842 194.881885 T 371.315668290344 283.46456 L 371.43384781243 283.46456 Q 371.43384781243 230.314955 258.608956307702 194.881885 T 145.784064802974 106.29921 Z" stroke="#21908CFF" fill="#21908CFF" style="stroke-width: 0.5px;"/> <path d="M 532.090878026755 106.29921 Q 532.090878026755 159.448815 527.344338960944 194.881885 T 522.597799895132 283.46456 L 522.950566085053 283.46456 Q 522.950566085053 230.314955 527.550373304061 194.881885 T 532.150180523069 106.29921 Z" stroke="#21908CFF" fill="#21908CFF" style="stroke-width: 0.5px;"/> <path d="M 343.302227948558 106.29921 Q 343.302227948558 159.448815 364.031033517225 194.881885 T 384.759839085892 283.46456 L 385.279841642899 283.46456 Q 385.279841642899 230.314955 364.302903983872 194.881885 T 343.325966324845 106.29921 Z" stroke="#21908CFF" fill="#21908CFF" style="stroke-width: 0.5px;"/> <path d="M 515.774904218534 106.29921 Q 515.774904218534 159.448815 439.165142987423 194.881885 T 362.555381756311 283.46456 L 362.671852201216 283.46456 Q 362.671852201216 230.314955 439.228256395665 194.881885 T 515.784660590113 106.29921 Z" stroke="#FDE725FF" fill="#FDE725FF" style="stroke-width: 0.5px;"/> <path d="M 329.185270740233 106.29921 Q 329.185270740233 159.448815 425.238921031286 194.881885 T 521.292571322338 283.46456 L 521.453541073095 283.46456 Q 521.453541073095 230.314955 425.328427269879 194.881885 T 329.203313466663 106.29921 Z" stroke="#21908CFF" fill="#21908CFF" style="stroke-width: 0.5px;"/> <path d="M 315.460446257214 106.29921 Q 315.460446257214 159.448815 266.938661264083 194.881885 T 218.416876270952 283.46456 L 218.531637638676 283.46456 Q 218.531637638676 230.314955 266.9970278699 194.881885 T 315.462418101124 106.29921 Z" stroke="#21908CFF" fill="#21908CFF" style="stroke-width: 0.5px;"/> <path d="M 332.966075742804 106.29921 Q 332.966075742804 159.448815 430.533108985763 194.881885 T 528.100142228723 283.46456 L 528.406383539837 283.46456 Q 528.406383539837 230.314955 430.73098269583 194.881885 T 333.055581851823 106.29921 Z" stroke="#21908CFF" fill="#21908CFF" style="stroke-width: 0.5px;"/> <path d="M 370.64370035186 106.29921 Q 370.64370035186 159.448815 389.973893363412 194.881885 T 409.304086374965 283.46456 L 409.710213752416 283.46456 Q 409.710213752416 230.314955 390.183799102254 194.881885 T 370.657384452092 106.29921 Z" stroke="#21908CFF" fill="#21908CFF" style="stroke-width: 0.5px;"/> <path d="M 541.997061113266 106.29921 Q 541.997061113266 159.448815 350.768272502948 194.881885 T 159.539483892629 283.46456 L 159.836167031362 283.46456 Q 159.836167031362 230.314955 351.000016686064 194.881885 T 542.163866340766 106.29921 Z" stroke="#21908CFF" fill="#21908CFF" style="stroke-width: 0.5px;"/> <path d="M 336.485971395131 106.29921 Q 336.485971395131 159.448815 328.961174382959 194.881885 T 321.436377370787 283.46456 L 321.633554238112 283.46456 Q 321.633554238112 230.314955 329.065542695423 194.881885 T 336.497531152733 106.29921 Z" stroke="#21908CFF" fill="#21908CFF" style="stroke-width: 0.5px;"/> <path d="M 321.094663955337 106.29921 Q 321.094663955337 159.448815 283.880849917302 194.881885 T 246.667035879267 283.46456 L 246.77027680081 283.46456 Q 246.77027680081 230.314955 283.940120139432 194.881885 T 321.109963478053 106.29921 Z" stroke="#21908CFF" fill="#21908CFF" style="stroke-width: 0.5px;"/> <path d="M 572.321087786011 106.29921 Q 572.321087786011 159.448815 415.886801727782 194.881885 T 259.452515669553 283.46456 L 259.646590878291 283.46456 Q 259.646590878291 230.314955 415.987208489912 194.881885 T 572.327826101533 106.29921 Z" stroke="#FDE725FF" fill="#FDE725FF" style="stroke-width: 0.5px;"/> <path d="M 371.283606258622 106.29921 Q 371.283606258622 159.448815 297.885245841884 194.881885 T 224.486885425145 283.46456 L 224.789518684434 283.46456 Q 224.789518684434 230.314955 298.04530986902 194.881885 T 371.301101053606 106.29921 Z" stroke="#21908CFF" fill="#21908CFF" style="stroke-width: 0.5px;"/> <path d="M 370.634646183688 106.29921 Q 370.634646183688 159.448815 404.485318364619 194.881885 T 438.335990545549 283.46456 L 438.479679627035 283.46456 Q 438.479679627035 230.314955 404.55907357246 194.881885 T 370.638467517885 106.29921 Z" stroke="#21908CFF" fill="#21908CFF" style="stroke-width: 0.5px;"/> <path d="M 321.558387736578 106.29921 Q 321.558387736578 159.448815 398.427219148611 194.881885 T 475.296050560645 283.46456 L 475.411888014001 283.46456 Q 475.411888014001 230.314955 398.499877053873 194.881885 T 321.587866093745 106.29921 Z" stroke="#21908CFF" fill="#21908CFF" style="stroke-width: 0.5px;"/> <path d="M 356.972213182677 106.29921 Q 356.972213182677 159.448815 375.251391581575 194.881885 T 393.530569980473 283.46456 L 393.623746336397 283.46456 Q 393.623746336397 230.314955 375.299346041671 194.881885 T 356.974945746945 106.29921 Z" stroke="#21908CFF" fill="#21908CFF" style="stroke-width: 0.5px;"/> <path d="M 593.640582846683 106.29921 Q 593.640582846683 159.448815 447.115293127487 194.881885 T 300.590003408291 283.46456 L 300.69292783406 283.46456 Q 300.69292783406 230.314955 447.167959370961 194.881885 T 593.642990907861 106.29921 Z" stroke="#FDE725FF" fill="#FDE725FF" style="stroke-width: 0.5px;"/> <path d="M 325.481704565951 106.29921 Q 325.481704565951 159.448815 382.290003416617 194.881885 T 439.098302267283 283.46456 L 439.192744606304 283.46456 Q 439.192744606304 230.314955 382.340989176615 194.881885 T 325.489233746926 106.29921 Z" stroke="#21908CFF" fill="#21908CFF" style="stroke-width: 0.5px;"/> <path d="M 531.375666124315 106.29921 Q 531.375666124315 159.448815 421.201375339171 194.881885 T 311.027084554026 283.46456 L 311.22673008839 283.46456 Q 311.22673008839 230.314955 421.331580816392 194.881885 T 531.436431544394 106.29921 Z" stroke="#21908CFF" fill="#21908CFF" style="stroke-width: 0.5px;"/> <path d="M 639.131084732981 106.29921 Q 639.131084732981 159.448815 639.746930274344 194.881885 T 640.362775815707 283.46456 L 640.438101809966 283.46456 Q 640.438101809966 230.314955 639.792844161506 194.881885 T 639.147586513045 106.29921 Z" stroke="#FDE725FF" fill="#FDE725FF" style="stroke-width: 0.5px;"/> <path d="M 312.147608401423 106.29921 Q 312.147608401423 159.448815 342.310445817737 194.881885 T 372.473283234052 283.46456 L 372.664066886738 283.46456 Q 372.664066886738 230.314955 342.431438809961 194.881885 T 312.198810733184 106.29921 Z" stroke="#21908CFF" fill="#21908CFF" style="stroke-width: 0.5px;"/> <path d="M 367.143429156869 106.29921 Q 367.143429156869 159.448815 347.048543730894 194.881885 T 326.95365830492 283.46456 L 327.047657549857 283.46456 Q 327.047657549857 230.314955 347.099876267567 194.881885 T 367.152094985278 106.29921 Z" stroke="#21908CFF" fill="#21908CFF" style="stroke-width: 0.5px;"/> <path d="M 325.703882787871 106.29921 Q 325.703882787871 159.448815 265.354118920348 194.881885 T 205.004355052825 283.46456 L 205.110191239716 283.46456 Q 205.110191239716 230.314955 265.452749391645 194.881885 T 325.795307543574 106.29921 Z" stroke="#21908CFF" fill="#21908CFF" style="stroke-width: 0.5px;"/> <path d="M 364.184058507975 106.29921 Q 364.184058507975 159.448815 247.486659734528 194.881885 T 130.789260961081 283.46456 L 131.046318828885 283.46456 Q 131.046318828885 230.314955 247.633844936221 194.881885 T 364.221371043556 106.29921 Z" stroke="#21908CFF" fill="#21908CFF" style="stroke-width: 0.5px;"/> <path d="M 347.940790371949 106.29921 Q 347.940790371949 159.448815 293.691810153839 194.881885 T 239.442829935728 283.46456 L 239.585506230736 283.46456 Q 239.585506230736 230.314955 293.766030704469 194.881885 T 347.946555178202 106.29921 Z" stroke="#21908CFF" fill="#21908CFF" style="stroke-width: 0.5px;"/> <path d="M 368.074729971886 106.29921 Q 368.074729971886 159.448815 351.095090626837 194.881885 T 334.115451281787 283.46456 L 334.208247842782 283.46456 Q 334.208247842782 230.314955 351.143951052361 194.881885 T 368.07965426194 106.29921 Z" stroke="#21908CFF" fill="#21908CFF" style="stroke-width: 0.5px;"/> <path d="M 313.652864746654 106.29921 Q 313.652864746654 159.448815 341.824277880564 194.881885 T 369.995691014473 283.46456 L 370.127163359075 283.46456 Q 370.127163359075 230.314955 341.913837544716 194.881885 T 313.700511730357 106.29921 Z" stroke="#21908CFF" fill="#21908CFF" style="stroke-width: 0.5px;"/> <path d="M 360.213525592445 106.29921 Q 360.213525592445 159.448815 355.81289371497 194.881885 T 351.412261837495 283.46456 L 351.62526349353 283.46456 Q 351.62526349353 230.314955 355.921559670159 194.881885 T 360.217855846788 106.29921 Z" stroke="#21908CFF" fill="#21908CFF" style="stroke-width: 0.5px;"/> <path d="M 662.070422215288 106.29921 Q 662.070422215288 159.448815 497.792772156288 194.881885 T 333.515122097288 283.46456 L 333.997841452095 283.46456 Q 333.997841452095 230.314955 498.129630610423 194.881885 T 662.261419768751 106.29921 Z" stroke="#21908CFF" fill="#21908CFF" style="stroke-width: 0.5px;"/> <path d="M 344.51435870239 106.29921 Q 344.51435870239 159.448815 322.39333182627 194.881885 T 300.272304950151 283.46456 L 300.379913513378 283.46456 Q 300.379913513378 230.314955 322.448501503398 194.881885 T 344.517089493417 106.29921 Z" stroke="#21908CFF" fill="#21908CFF" style="stroke-width: 0.5px;"/> <path d="M 366.317843646183 106.29921 Q 366.317843646183 159.448815 481.423230564337 194.881885 T 596.528617482491 283.46456 L 596.804348600972 283.46456 Q 596.804348600972 230.314955 481.562405662002 194.881885 T 366.320462723031 106.29921 Z" stroke="#21908CFF" fill="#21908CFF" style="stroke-width: 0.5px;"/> <path d="M 368.069236471495 106.29921 Q 368.069236471495 159.448815 403.407955966822 194.881885 T 438.746675462149 283.46456 L 438.852068554957 283.46456 Q 438.852068554957 230.314955 403.463009150418 194.881885 T 368.073949745879 106.29921 Z" stroke="#21908CFF" fill="#21908CFF" style="stroke-width: 0.5px;"/> <path d="M 353.4113538917 106.29921 Q 353.4113538917 159.448815 455.491822956458 194.881885 T 557.572292021217 283.46456 L 558.052542708986 283.46456 Q 558.052542708986 230.314955 455.738153756966 194.881885 T 353.423764804946 106.29921 Z" stroke="#21908CFF" fill="#21908CFF" style="stroke-width: 0.5px;"/> <path d="M 146.788075588953 106.29921 Q 146.788075588953 159.448815 236.700782117882 194.881885 T 326.613488646812 283.46456 L 326.891941628951 283.46456 Q 326.891941628951 230.314955 236.846023442176 194.881885 T 146.8001052554 106.29921 Z" stroke="#21908CFF" fill="#21908CFF" style="stroke-width: 0.5px;"/> <path d="M 326.074231248391 106.29921 Q 326.074231248391 159.448815 479.550444107401 194.881885 T 633.026656966411 283.46456 L 633.70636329108 283.46456 Q 633.70636329108 230.314955 479.904892815804 194.881885 T 326.103422340528 106.29921 Z" stroke="#21908CFF" fill="#21908CFF" style="stroke-width: 0.5px;"/> <path d="M 360.404970002622 106.29921 Q 360.404970002622 159.448815 357.313667260034 194.881885 T 354.222364517446 283.46456 L 354.309021060422 283.46456 Q 354.309021060422 230.314955 357.360935672861 194.881885 T 360.412850285301 106.29921 Z" stroke="#21908CFF" fill="#21908CFF" style="stroke-width: 0.5px;"/> <path d="M 354.58992251451 106.29921 Q 354.58992251451 159.448815 386.679122662239 194.881885 T 418.768322809969 283.46456 L 418.88631243459 283.46456 Q 418.88631243459 230.314955 386.753227260487 194.881885 T 354.620142086384 106.29921 Z" stroke="#21908CFF" fill="#21908CFF" style="stroke-width: 0.5px;"/> <path d="M 634.700958666611 106.29921 Q 634.700958666611 159.448815 509.998597395307 194.881885 T 385.296236124003 283.46456 L 385.380930393178 283.46456 Q 385.380930393178 230.314955 510.137534736417 194.881885 T 634.894139079656 106.29921 Z" stroke="#FDE725FF" fill="#FDE725FF" style="stroke-width: 0.5px;"/> <path d="M 363.107935333227 106.29921 Q 363.107935333227 159.448815 279.560417669272 194.881885 T 196.012900005317 283.46456 L 196.079680613673 283.46456 Q 196.079680613673 230.314955 279.595256711287 194.881885 T 363.110832808902 106.29921 Z" stroke="#21908CFF" fill="#21908CFF" style="stroke-width: 0.5px;"/> <path d="M 367.755562564236 106.29921 Q 367.755562564236 159.448815 452.371769561997 194.881885 T 536.987976559758 283.46456 L 537.101915038469 283.46456 Q 537.101915038469 230.314955 452.429892294575 194.881885 T 367.757869550682 106.29921 Z" stroke="#21908CFF" fill="#21908CFF" style="stroke-width: 0.5px;"/> <path d="M 356.537334711591 106.29921 Q 356.537334711591 159.448815 451.140203637342 194.881885 T 545.743072563094 283.46456 L 546.324095505367 283.46456 Q 546.324095505367 230.314955 451.440261351008 194.881885 T 356.556427196649 106.29921 Z" stroke="#21908CFF" fill="#21908CFF" style="stroke-width: 0.5px;"/> <path d="M 357.032602675679 106.29921 Q 357.032602675679 159.448815 389.135840698252 194.881885 T 421.239078720825 283.46456 L 421.970247258378 283.46456 Q 421.970247258378 230.314955 389.518365624222 194.881885 T 357.066483990067 106.29921 Z" stroke="#21908CFF" fill="#21908CFF" style="stroke-width: 0.5px;"/> <path d="M 456.312221916723 106.29921 Q 456.312221916723 159.448815 453.22298612022 194.881885 T 450.133750323717 283.46456 L 450.203822488125 283.46456 Q 450.203822488125 230.314955 453.2596979151 194.881885 T 456.315573342074 106.29921 Z" stroke="#21908CFF" fill="#21908CFF" style="stroke-width: 0.5px;"/> <path d="M 456.418930235973 106.29921 Q 456.418930235973 159.448815 535.651518319432 194.881885 T 614.884106402891 283.46456 L 615.125655977759 283.46456 Q 615.125655977759 230.314955 535.776360921552 194.881885 T 456.427065865345 106.29921 Z" stroke="#21908CFF" fill="#21908CFF" style="stroke-width: 0.5px;"/> <path d="M 322.839770641564 106.29921 Q 322.839770641564 159.448815 434.23866175677 194.881885 T 545.637552871976 283.46456 L 545.705726061738 283.46456 Q 545.705726061738 230.314955 434.29015714445 194.881885 T 322.874588227161 106.29921 Z" stroke="#21908CFF" fill="#21908CFF" style="stroke-width: 0.5px;"/> <path d="M 363.585818443269 106.29921 Q 363.585818443269 159.448815 285.133610652208 194.881885 T 206.681402861146 283.46456 L 207.070059671862 283.46456 Q 207.070059671862 230.314955 285.328935618966 194.881885 T 363.587811566071 106.29921 Z" stroke="#21908CFF" fill="#21908CFF" style="stroke-width: 0.5px;"/> <path d="M 357.765791694635 106.29921 Q 357.765791694635 159.448815 365.57687385806 194.881885 T 373.387956021485 283.46456 L 373.906249501312 283.46456 Q 373.906249501312 230.314955 365.86136641716 194.881885 T 357.816483333008 106.29921 Z" stroke="#21908CFF" fill="#21908CFF" style="stroke-width: 0.5px;"/> <path d="M 531.453006027336 106.29921 Q 531.453006027336 159.448815 576.723120255134 194.881885 T 621.993234482932 283.46456 L 622.165154987476 283.46456 Q 622.165154987476 230.314955 576.809837681282 194.881885 T 531.454520375088 106.29921 Z" stroke="#21908CFF" fill="#21908CFF" style="stroke-width: 0.5px;"/> <path d="M 367.153135877702 106.29921 Q 367.153135877702 159.448815 347.112233655734 194.881885 T 327.071331433767 283.46456 L 327.212425249904 283.46456 Q 327.212425249904 230.314955 347.18535796949 194.881885 T 367.158290689076 106.29921 Z" stroke="#21908CFF" fill="#21908CFF" style="stroke-width: 0.5px;"/> <path d="M 544.981269547821 106.29921 Q 544.981269547821 159.448815 547.926324869279 194.881885 T 550.871380190737 283.46456 L 552.188065910557 283.46456 Q 552.188065910557 230.314955 548.71165837816 194.881885 T 545.235250845762 106.29921 Z" stroke="#21908CFF" fill="#21908CFF" style="stroke-width: 0.5px;"/> <path d="M 361.300990416161 106.29921 Q 361.300990416161 159.448815 435.121252023939 194.881885 T 508.941513631717 283.46456 L 509.000381845718 283.46456 Q 509.000381845718 230.314955 435.152297120321 194.881885 T 361.304212394925 106.29921 Z" stroke="#21908CFF" fill="#21908CFF" style="stroke-width: 0.5px;"/> <path d="M 314.652419378184 106.29921 Q 314.652419378184 159.448815 360.760218889573 194.881885 T 406.868018400961 283.46456 L 407.050573163518 283.46456 Q 407.050573163518 230.314955 360.859446596546 194.881885 T 314.668320029575 106.29921 Z" stroke="#21908CFF" fill="#21908CFF" style="stroke-width: 0.5px;"/> <path d="M 348.7883108729 106.29921 Q 348.7883108729 159.448815 422.335382883557 194.881885 T 495.882454894214 283.46456 L 496.147741652147 283.46456 Q 496.147741652147 230.314955 422.47111968132 194.881885 T 348.794497710493 106.29921 Z" stroke="#21908CFF" fill="#21908CFF" style="stroke-width: 0.5px;"/> <path d="M 367.03984174165 106.29921 Q 367.03984174165 159.448815 406.110026702118 194.881885 T 445.180211662586 283.46456 L 445.505695916771 283.46456 Q 445.505695916771 230.314955 406.282597017047 194.881885 T 367.059498117323 106.29921 Z" stroke="#21908CFF" fill="#21908CFF" style="stroke-width: 0.5px;"/> <path d="M 347.995652672983 106.29921 Q 347.995652672983 159.448815 467.33233359967 194.881885 T 586.669014526358 283.46456 L 586.864039222418 283.46456 Q 586.864039222418 230.314955 467.43369033403 194.881885 T 348.003341445641 106.29921 Z" stroke="#21908CFF" fill="#21908CFF" style="stroke-width: 0.5px;"/> <path d="M 371.426134044593 106.29921 Q 371.426134044593 159.448815 498.619166568655 194.881885 T 625.812199092718 283.46456 L 625.879549393467 283.46456 Q 625.879549393467 230.314955 498.654149484214 194.881885 T 371.42874957496 106.29921 Z" stroke="#21908CFF" fill="#21908CFF" style="stroke-width: 0.5px;"/> <path d="M 324.451288449332 106.29921 Q 324.451288449332 159.448815 264.252065303303 194.881885 T 204.052842157275 283.46456 L 204.137852922225 283.46456 Q 204.137852922225 230.314955 264.335722287966 194.881885 T 324.533591653707 106.29921 Z" stroke="#21908CFF" fill="#21908CFF" style="stroke-width: 0.5px;"/> <path d="M 525.396982190239 106.29921 Q 525.396982190239 159.448815 433.474472390449 194.881885 T 341.551962590658 283.46456 L 341.633555201247 283.46456 Q 341.633555201247 230.314955 433.52639932904 194.881885 T 525.419243456834 106.29921 Z" stroke="#21908CFF" fill="#21908CFF" style="stroke-width: 0.5px;"/> <path d="M 661.672152303135 106.29921 Q 661.672152303135 159.448815 498.238085895634 194.881885 T 334.804019488133 283.46456 L 334.868394728605 283.46456 Q 334.868394728605 230.314955 498.274021260569 194.881885 T 661.679647792532 106.29921 Z" stroke="#21908CFF" fill="#21908CFF" style="stroke-width: 0.5px;"/> <path d="M 371.386890449643 106.29921 Q 371.386890449643 159.448815 290.794939245569 194.881885 T 210.202988041495 283.46456 L 210.270781436328 283.46456 Q 210.270781436328 230.314955 290.829857329759 194.881885 T 371.388933223191 106.29921 Z" stroke="#21908CFF" fill="#21908CFF" style="stroke-width: 0.5px;"/> <path d="M 343.288726492142 106.29921 Q 343.288726492142 159.448815 479.231086665903 194.881885 T 615.173446839663 283.46456 L 615.243962098155 283.46456 Q 615.243962098155 230.314955 479.267904747164 194.881885 T 343.291847396173 106.29921 Z" stroke="#21908CFF" fill="#21908CFF" style="stroke-width: 0.5px;"/> <path d="M 608.912625916898 106.29921 Q 608.912625916898 159.448815 478.802619783354 194.881885 T 348.692613649809 283.46456 L 348.804273358946 283.46456 Q 348.804273358946 230.314955 478.859648348789 194.881885 T 608.915023338631 106.29921 Z" stroke="#FDE725FF" fill="#FDE725FF" style="stroke-width: 0.5px;"/> <path d="M 360.310876519325 106.29921 Q 360.310876519325 159.448815 355.602264190609 194.881885 T 350.893651861894 283.46456 L 351.152039011949 283.46456 Q 351.152039011949 230.314955 355.760811109318 194.881885 T 360.369583206687 106.29921 Z" stroke="#21908CFF" fill="#21908CFF" style="stroke-width: 0.5px;"/> <path d="M 666.570071738673 106.29921 Q 666.570071738673 159.448815 535.501802322251 194.881885 T 404.433532905828 283.46456 L 404.927772706816 283.46456 Q 404.927772706816 230.314955 535.770912183478 194.881885 T 666.614051660139 106.29921 Z" stroke="#FDE725FF" fill="#FDE725FF" style="stroke-width: 0.5px;"/><rect x="124.015745" y="88.582675" rx="2" ry="2" width="111.294877837059" height="17.71654" style="fill:#f7f7f7;stroke:black;stroke-width:0.5"/> <rect x="238.853929837059" y="88.582675" rx="2" ry="2" width="69.722778162303" height="17.71654" style="fill:#f7f7f7;stroke:black;stroke-width:0.5"/> <rect x="312.120014999362" y="88.582675" rx="2" ry="2" width="61.2461882516349" height="17.71654" style="fill:#f7f7f7;stroke:black;stroke-width:0.5"/> <rect x="376.909510250996" y="88.582675" rx="2" ry="2" width="46.5387152160811" height="17.71654" style="fill:#f7f7f7;stroke:black;stroke-width:0.5"/> <rect x="426.991532467077" y="88.582675" rx="2" ry="2" width="39.6708981362264" height="17.71654" style="fill:#f7f7f7;stroke:black;stroke-width:0.5"/> <rect x="470.205737603304" y="88.582675" rx="2" ry="2" width="28.9151705285836" height="17.71654" style="fill:#f7f7f7;stroke:black;stroke-width:0.5"/> <rect x="502.664215131888" y="88.582675" rx="2" ry="2" width="17.7767331979203" height="17.71654" style="fill:#f7f7f7;stroke:black;stroke-width:0.5"/> <rect x="523.984255329808" y="88.582675" rx="2" ry="2" width="12.3042811765831" height="17.71654" style="fill:#f7f7f7;stroke:black;stroke-width:0.5"/> <rect x="539.831843506391" y="88.582675" rx="2" ry="2" width="8.77571082964145" height="17.71654" style="fill:#f7f7f7;stroke:black;stroke-width:0.5"/> <rect x="552.150861336032" y="88.582675" rx="2" ry="2" width="8.58160833131519" height="17.71654" style="fill:#f7f7f7;stroke:black;stroke-width:0.5"/> <rect x="564.275776667348" y="88.582675" rx="2" ry="2" width="8.53737483639688" height="17.71654" style="fill:#f7f7f7;stroke:black;stroke-width:0.5"/> <rect x="576.356458503744" y="88.582675" rx="2" ry="2" width="8.45071832554648" height="17.71654" style="fill:#f7f7f7;stroke:black;stroke-width:0.5"/> <rect x="588.350483829291" y="88.582675" rx="2" ry="2" width="7.24876952111668" height="17.71654" style="fill:#f7f7f7;stroke:black;stroke-width:0.5"/> <rect x="599.142560350408" y="88.582675" rx="2" ry="2" width="4.86231173677187" height="17.71654" style="fill:#f7f7f7;stroke:black;stroke-width:0.5"/> <rect x="607.54817908718" y="88.582675" rx="2" ry="2" width="4.75980422527706" height="17.71654" style="fill:#f7f7f7;stroke:black;stroke-width:0.5"/> <rect x="615.851290312457" y="88.582675" rx="2" ry="2" width="4.20856036485347" height="17.71654" style="fill:#f7f7f7;stroke:black;stroke-width:0.5"/> <rect x="623.60315767731" y="88.582675" rx="2" ry="2" width="4.08005359489034" height="17.71654" style="fill:#f7f7f7;stroke:black;stroke-width:0.5"/> <rect x="631.2265182722" y="88.582675" rx="2" ry="2" width="3.92767013584823" height="17.71654" style="fill:#f7f7f7;stroke:black;stroke-width:0.5"/> <rect x="638.697495408049" y="88.582675" rx="2" ry="2" width="3.45772937191711" height="17.71654" style="fill:#f7f7f7;stroke:black;stroke-width:0.5"/> <rect x="645.698531779966" y="88.582675" rx="2" ry="2" width="3.38288087239809" height="17.71654" style="fill:#f7f7f7;stroke:black;stroke-width:0.5"/> <rect x="652.624719652364" y="88.582675" rx="2" ry="2" width="3.31768412324348" height="17.71654" style="fill:#f7f7f7;stroke:black;stroke-width:0.5"/> <rect x="659.485710775607" y="88.582675" rx="2" ry="2" width="3.22316506212378" height="17.71654" style="fill:#f7f7f7;stroke:black;stroke-width:0.5"/> <rect x="666.252182837731" y="88.582675" rx="2" ry="2" width="2.67708310603802" height="17.71654" style="fill:#f7f7f7;stroke:black;stroke-width:0.5"/> <rect x="672.472572943769" y="88.582675" rx="2" ry="2" width="0.755757056230929" height="17.71654" style="fill:#f7f7f7;stroke:black;stroke-width:0.5"/> <rect x="124.015745" y="283.46456" rx="2" ry="2" width="549.212585" height="17.71654" style="fill:#f7f7f7;stroke:black;stroke-width:0.5"/><rect x="124.015745" y="91.582675" rx="2" ry="2" width="111.294877837059" height="11.71654" style="fill:#21908CFF;stroke:#21908CFF;stroke-width:0.5"/> <rect x="238.853929837059" y="91.582675" rx="2" ry="2" width="69.722778162303" height="11.71654" style="fill:#FDE725FF;stroke:#FDE725FF;stroke-width:0.5"/> <rect x="312.120014999362" y="91.582675" rx="2" ry="2" width="61.2461882516349" height="11.71654" style="fill:#21908CFF;stroke:#21908CFF;stroke-width:0.5"/> <rect x="376.909510250996" y="91.582675" rx="2" ry="2" width="46.5387152160811" height="11.71654" style="fill:#FDE725FF;stroke:#FDE725FF;stroke-width:0.5"/> <rect x="426.991532467077" y="91.582675" rx="2" ry="2" width="39.6708981362264" height="11.71654" style="fill:#21908CFF;stroke:#21908CFF;stroke-width:0.5"/> <rect x="470.205737603304" y="91.582675" rx="2" ry="2" width="28.9151705285836" height="11.71654" style="fill:#FDE725FF;stroke:#FDE725FF;stroke-width:0.5"/> <rect x="502.664215131888" y="91.582675" rx="2" ry="2" width="17.7767331979203" height="11.71654" style="fill:#FDE725FF;stroke:#FDE725FF;stroke-width:0.5"/> <rect x="523.984255329808" y="91.582675" rx="2" ry="2" width="12.3042811765831" height="11.71654" style="fill:#21908CFF;stroke:#21908CFF;stroke-width:0.5"/> <rect x="539.831843506391" y="91.582675" rx="2" ry="2" width="8.77571082964145" height="11.71654" style="fill:#21908CFF;stroke:#21908CFF;stroke-width:0.5"/> <rect x="552.150861336032" y="91.582675" rx="2" ry="2" width="8.58160833131519" height="11.71654" style="fill:#FDE725FF;stroke:#FDE725FF;stroke-width:0.5"/> <rect x="564.275776667348" y="91.582675" rx="2" ry="2" width="8.53737483639688" height="11.71654" style="fill:#FDE725FF;stroke:#FDE725FF;stroke-width:0.5"/> <rect x="576.356458503744" y="91.582675" rx="2" ry="2" width="8.45071832554648" height="11.71654" style="fill:#FDE725FF;stroke:#FDE725FF;stroke-width:0.5"/> <rect x="588.350483829291" y="91.582675" rx="2" ry="2" width="7.24876952111668" height="11.71654" style="fill:#FDE725FF;stroke:#FDE725FF;stroke-width:0.5"/> <rect x="599.142560350408" y="91.582675" rx="2" ry="2" width="4.86231173677187" height="11.71654" style="fill:#FDE725FF;stroke:#FDE725FF;stroke-width:0.5"/> <rect x="607.54817908718" y="91.582675" rx="2" ry="2" width="4.75980422527706" height="11.71654" style="fill:#FDE725FF;stroke:#FDE725FF;stroke-width:0.5"/> <rect x="615.851290312457" y="91.582675" rx="2" ry="2" width="4.20856036485347" height="11.71654" style="fill:#FDE725FF;stroke:#FDE725FF;stroke-width:0.5"/> <rect x="623.60315767731" y="91.582675" rx="2" ry="2" width="4.08005359489034" height="11.71654" style="fill:#FDE725FF;stroke:#FDE725FF;stroke-width:0.5"/> <rect x="631.2265182722" y="91.582675" rx="2" ry="2" width="3.92767013584823" height="11.71654" style="fill:#FDE725FF;stroke:#FDE725FF;stroke-width:0.5"/> <rect x="638.697495408049" y="91.582675" rx="2" ry="2" width="3.45772937191711" height="11.71654" style="fill:#FDE725FF;stroke:#FDE725FF;stroke-width:0.5"/> <rect x="645.698531779966" y="91.582675" rx="2" ry="2" width="3.38288087239809" height="11.71654" style="fill:#FDE725FF;stroke:#FDE725FF;stroke-width:0.5"/> <rect x="652.624719652364" y="91.582675" rx="2" ry="2" width="3.31768412324348" height="11.71654" style="fill:#21908CFF;stroke:#21908CFF;stroke-width:0.5"/> <rect x="659.485710775607" y="91.582675" rx="2" ry="2" width="3.22316506212378" height="11.71654" style="fill:#21908CFF;stroke:#21908CFF;stroke-width:0.5"/> <rect x="666.252182837731" y="91.582675" rx="2" ry="2" width="2.67708310603802" height="11.71654" style="fill:#FDE725FF;stroke:#FDE725FF;stroke-width:0.5"/> <rect x="672.472572943769" y="91.582675" rx="2" ry="2" width="0.755757056230929" height="11.71654" style="fill:#FDE725FF;stroke:#FDE725FF;stroke-width:0.5"/> <rect x="124.015745" y="286.46456" rx="2" ry="2" width="549.212585" height="11.71654" style="fill:#440154FF;stroke:#440154FF;stroke-width:0.5"/></svg>